<svg data-v-423bf9ae="" xmlns="http://www.w3.org/2000/svg" viewBox="0 0 1006 90" class="iconLeftSlogan"><!----><!----><!----><g data-v-423bf9ae="" id="ab41671f-b565-411f-8a44-4574569df5aa" fill="white" transform="matrix(4.029549682584679,0,0,4.029549682584679,155.31292967352795,-10.315647433681256)"><path d="M5.51 11.30L8.12 3.63L9.49 3.63L5.73 13.64L4.25 13.64L0.50 3.63L1.98 3.63L4.59 11.30L4.98 12.69L5.11 12.69L5.51 11.30ZM11.18 13.64L11.18 6.40L12.48 6.40L12.48 13.64L11.18 13.64ZM11.84 4.83L11.84 4.83L11.84 4.83Q11.67 4.83 11.52 4.76L11.52 4.76L11.52 4.76Q11.37 4.70 11.26 4.59L11.26 4.59L11.26 4.59Q11.15 4.48 11.09 4.34L11.09 4.34L11.09 4.34Q11.03 4.19 11.03 4.01L11.03 4.01L11.03 4.01Q11.03 3.83 11.09 3.68L11.09 3.68L11.09 3.68Q11.16 3.52 11.28 3.40L11.28 3.40L11.28 3.40Q11.39 3.29 11.54 3.22L11.54 3.22L11.54 3.22Q11.70 3.16 11.87 3.16L11.87 3.16L11.87 3.16Q12.03 3.16 12.18 3.22L12.18 3.22L12.18 3.22Q12.33 3.29 12.43 3.40L12.43 3.40L12.43 3.40Q12.54 3.52 12.61 3.67L12.61 3.67L12.61 3.67Q12.67 3.83 12.67 4.00L12.67 4.00L12.67 4.00Q12.67 4.18 12.60 4.34L12.60 4.34L12.60 4.34Q12.53 4.49 12.42 4.60L12.42 4.60L12.42 4.60Q12.30 4.70 12.15 4.76L12.15 4.76L12.15 4.76Q12.00 4.83 11.84 4.83ZM14.46 13.32L14.73 12.22L14.85 12.14L14.85 12.14Q15.11 12.28 15.40 12.40L15.40 12.40L15.40 12.40Q15.69 12.51 15.97 12.58L15.97 12.58L15.97 12.58Q16.25 12.66 16.52 12.70L16.52 12.70L16.52 12.70Q16.79 12.74 17.02 12.74L17.02 12.74L17.02 12.74Q17.34 12.74 17.61 12.67L17.61 12.67L17.61 12.67Q17.88 12.59 18.06 12.46L18.06 12.46L18.06 12.46Q18.25 12.32 18.36 12.13L18.36 12.13L18.36 12.13Q18.46 11.94 18.46 11.70L18.46 11.70L18.46 11.70Q18.46 11.41 18.30 11.21L18.30 11.21L18.30 11.21Q18.14 11.02 17.87 10.88L17.87 10.88L17.87 10.88Q17.60 10.74 17.26 10.64L17.26 10.64L17.26 10.64Q16.92 10.53 16.56 10.42L16.56 10.42L16.56 10.42Q16.21 10.32 15.87 10.18L15.87 10.18L15.87 10.18Q15.52 10.04 15.26 9.83L15.26 9.83L15.26 9.83Q14.99 9.63 14.83 9.33L14.83 9.33L14.83 9.33Q14.66 9.03 14.66 8.60L14.66 8.60L14.66 8.60Q14.66 8.12 14.88 7.69L14.88 7.69L14.88 7.69Q15.09 7.27 15.47 6.95L15.47 6.95L15.47 6.95Q15.85 6.63 16.39 6.45L16.39 6.45L16.39 6.45Q16.93 6.26 17.58 6.26L17.58 6.26L17.58 6.26Q17.74 6.26 17.96 6.28L17.96 6.28L17.96 6.28Q18.18 6.29 18.42 6.32L18.42 6.32L18.42 6.32Q18.67 6.35 18.93 6.40L18.93 6.40L18.93 6.40Q19.18 6.45 19.42 6.53L19.42 6.53L19.15 7.59L18.98 7.69L18.98 7.69Q18.79 7.59 18.56 7.51L18.56 7.51L18.56 7.51Q18.33 7.44 18.10 7.39L18.10 7.39L18.10 7.39Q17.86 7.35 17.64 7.32L17.64 7.32L17.64 7.32Q17.41 7.30 17.24 7.30L17.24 7.30L17.24 7.30Q16.93 7.30 16.67 7.37L16.67 7.37L16.67 7.37Q16.41 7.44 16.23 7.56L16.23 7.56L16.23 7.56Q16.04 7.69 15.94 7.87L15.94 7.87L15.94 7.87Q15.84 8.05 15.84 8.29L15.84 8.29L15.84 8.29Q15.84 8.59 16.00 8.78L16.00 8.78L16.00 8.78Q16.17 8.98 16.44 9.12L16.44 9.12L16.44 9.12Q16.71 9.26 17.06 9.37L17.06 9.37L17.06 9.37Q17.40 9.47 17.77 9.58L17.77 9.58L17.77 9.58Q18.13 9.69 18.47 9.82L18.47 9.82L18.47 9.82Q18.82 9.96 19.09 10.17L19.09 10.17L19.09 10.17Q19.37 10.38 19.53 10.69L19.53 10.69L19.53 10.69Q19.69 10.99 19.69 11.43L19.69 11.43L19.69 11.43Q19.69 11.94 19.47 12.37L19.47 12.37L19.47 12.37Q19.24 12.80 18.84 13.12L18.84 13.12L18.84 13.12Q18.44 13.43 17.90 13.61L17.90 13.61L17.90 13.61Q17.36 13.78 16.75 13.78L16.75 13.78L16.75 13.78Q16.22 13.78 15.62 13.66L15.62 13.66L15.62 13.66Q15.03 13.54 14.46 13.32L14.46 13.32ZM21.64 13.64L21.64 6.40L22.94 6.40L22.94 13.64L21.64 13.64ZM22.30 4.83L22.30 4.83L22.30 4.83Q22.13 4.83 21.98 4.76L21.98 4.76L21.98 4.76Q21.83 4.70 21.72 4.59L21.72 4.59L21.72 4.59Q21.61 4.48 21.55 4.34L21.55 4.34L21.55 4.34Q21.49 4.19 21.49 4.01L21.49 4.01L21.49 4.01Q21.49 3.83 21.55 3.68L21.55 3.68L21.55 3.68Q21.62 3.52 21.73 3.40L21.73 3.40L21.73 3.40Q21.85 3.29 22.00 3.22L22.00 3.22L22.00 3.22Q22.16 3.16 22.33 3.16L22.33 3.16L22.33 3.16Q22.49 3.16 22.64 3.22L22.64 3.22L22.64 3.22Q22.78 3.29 22.89 3.40L22.89 3.40L22.89 3.40Q23.00 3.52 23.06 3.67L23.06 3.67L23.06 3.67Q23.13 3.83 23.13 4.00L23.13 4.00L23.13 4.00Q23.13 4.18 23.06 4.34L23.06 4.34L23.06 4.34Q22.99 4.49 22.88 4.60L22.88 4.60L22.88 4.60Q22.76 4.70 22.61 4.76L22.61 4.76L22.61 4.76Q22.46 4.83 22.30 4.83ZM26.00 11.83L26.00 7.44L24.54 7.44L24.65 6.77L24.65 6.77Q25.18 6.66 25.50 6.49L25.50 6.49L25.50 6.49Q25.83 6.32 26.03 6.07L26.03 6.07L26.03 6.07Q26.24 5.82 26.38 5.46L26.38 5.46L26.38 5.46Q26.52 5.10 26.70 4.60L26.70 4.60L27.30 4.60L27.30 6.40L29.93 6.40L29.65 7.44L27.30 7.44L27.30 11.48L27.30 11.48Q27.30 11.81 27.40 12.04L27.40 12.04L27.40 12.04Q27.50 12.27 27.68 12.41L27.68 12.41L27.68 12.41Q27.86 12.56 28.11 12.62L28.11 12.62L28.11 12.62Q28.36 12.69 28.67 12.69L28.67 12.69L28.67 12.69Q28.98 12.69 29.30 12.63L29.30 12.63L29.30 12.63Q29.61 12.57 29.89 12.47L29.89 12.47L29.89 13.21L29.89 13.21Q29.46 13.49 28.98 13.63L28.98 13.63L28.98 13.63Q28.51 13.78 28.01 13.78L28.01 13.78L28.01 13.78Q27.56 13.78 27.19 13.65L27.19 13.65L27.19 13.65Q26.82 13.52 26.55 13.28L26.55 13.28L26.55 13.28Q26.29 13.03 26.15 12.66L26.15 12.66L26.15 12.66Q26.00 12.30 26.00 11.83L26.00 11.83ZM34.65 13.78L34.65 13.78L34.65 13.78Q33.84 13.78 33.22 13.49L33.22 13.49L33.22 13.49Q32.59 13.21 32.15 12.72L32.15 12.72L32.15 12.72Q31.72 12.24 31.49 11.59L31.49 11.59L31.49 11.59Q31.26 10.94 31.26 10.23L31.26 10.23L31.26 10.23Q31.26 9.41 31.55 8.69L31.55 8.69L31.55 8.69Q31.84 7.96 32.36 7.42L32.36 7.42L32.36 7.42Q32.87 6.88 33.58 6.57L33.58 6.57L33.58 6.57Q34.30 6.26 35.13 6.26L35.13 6.26L35.13 6.26Q35.94 6.26 36.58 6.55L36.58 6.55L36.58 6.55Q37.21 6.84 37.65 7.33L37.65 7.33L37.65 7.33Q38.08 7.83 38.31 8.47L38.31 8.47L38.31 8.47Q38.53 9.12 38.53 9.83L38.53 9.83L38.53 9.83Q38.53 10.66 38.24 11.38L38.24 11.38L38.24 11.38Q37.95 12.10 37.43 12.63L37.43 12.63L37.43 12.63Q36.91 13.17 36.20 13.47L36.20 13.47L36.20 13.47Q35.49 13.78 34.65 13.78ZM34.94 12.74L34.94 12.74L34.94 12.74Q35.44 12.74 35.84 12.54L35.84 12.54L35.84 12.54Q36.25 12.34 36.54 11.99L36.54 11.99L36.54 11.99Q36.83 11.64 36.99 11.17L36.99 11.17L36.99 11.17Q37.15 10.69 37.15 10.14L37.15 10.14L37.15 10.14Q37.15 9.60 37.00 9.10L37.00 9.10L37.00 9.10Q36.84 8.59 36.54 8.19L36.54 8.19L36.54 8.19Q36.24 7.79 35.81 7.54L35.81 7.54L35.81 7.54Q35.38 7.30 34.84 7.30L34.84 7.30L34.84 7.30Q34.34 7.30 33.94 7.50L33.94 7.50L33.94 7.50Q33.53 7.70 33.24 8.06L33.24 8.06L33.24 8.06Q32.95 8.41 32.79 8.89L32.79 8.89L32.79 8.89Q32.63 9.37 32.63 9.91L32.63 9.91L32.63 9.91Q32.63 10.45 32.79 10.96L32.79 10.96L32.79 10.96Q32.94 11.47 33.24 11.87L33.24 11.87L33.24 11.87Q33.54 12.26 33.96 12.50L33.96 12.50L33.96 12.50Q34.39 12.74 34.94 12.74ZM40.49 13.64L40.49 6.40L41.50 6.40L41.71 8.57L41.71 8.57Q41.79 8.40 41.89 8.22L41.89 8.22L41.89 8.22Q41.99 8.04 42.09 7.87L42.09 7.87L42.09 7.87Q42.19 7.70 42.29 7.55L42.29 7.55L42.29 7.55Q42.38 7.40 42.46 7.29L42.46 7.29L42.46 7.29Q42.61 7.08 42.80 6.89L42.80 6.89L42.80 6.89Q42.98 6.70 43.20 6.56L43.20 6.56L43.20 6.56Q43.42 6.42 43.67 6.34L43.67 6.34L43.67 6.34Q43.91 6.26 44.19 6.26L44.19 6.26L44.19 6.26Q44.39 6.26 44.57 6.31L44.57 6.31L44.57 6.31Q44.75 6.35 44.86 6.45L44.86 6.45L44.73 7.67L44.73 7.67Q44.60 7.64 44.48 7.63L44.48 7.63L44.48 7.63Q44.37 7.62 44.25 7.62L44.25 7.62L44.25 7.62Q43.76 7.62 43.40 7.77L43.40 7.77L43.40 7.77Q43.05 7.93 42.76 8.20L42.76 8.20L42.76 8.20Q42.48 8.47 42.25 8.83L42.25 8.83L42.25 8.83Q42.02 9.19 41.79 9.61L41.79 9.61L41.79 13.64L40.49 13.64ZM46.03 13.32L46.30 12.22L46.42 12.14L46.42 12.14Q46.68 12.28 46.97 12.40L46.97 12.40L46.97 12.40Q47.26 12.51 47.54 12.58L47.54 12.58L47.54 12.58Q47.82 12.66 48.09 12.70L48.09 12.70L48.09 12.70Q48.36 12.74 48.59 12.74L48.59 12.74L48.59 12.74Q48.91 12.74 49.18 12.67L49.18 12.67L49.18 12.67Q49.44 12.59 49.63 12.46L49.63 12.46L49.63 12.46Q49.82 12.32 49.93 12.13L49.93 12.13L49.93 12.13Q50.03 11.94 50.03 11.70L50.03 11.70L50.03 11.70Q50.03 11.41 49.87 11.21L49.87 11.21L49.87 11.21Q49.70 11.02 49.44 10.88L49.44 10.88L49.44 10.88Q49.17 10.74 48.83 10.64L48.83 10.64L48.83 10.64Q48.49 10.53 48.13 10.42L48.13 10.42L48.13 10.42Q47.78 10.32 47.43 10.18L47.43 10.18L47.43 10.18Q47.09 10.04 46.83 9.83L46.83 9.83L46.83 9.83Q46.56 9.63 46.40 9.33L46.40 9.33L46.40 9.33Q46.23 9.03 46.23 8.60L46.23 8.60L46.23 8.60Q46.23 8.12 46.44 7.69L46.44 7.69L46.44 7.69Q46.66 7.27 47.04 6.95L47.04 6.95L47.04 6.95Q47.42 6.63 47.96 6.45L47.96 6.45L47.96 6.45Q48.49 6.26 49.15 6.26L49.15 6.26L49.15 6.26Q49.31 6.26 49.53 6.28L49.53 6.28L49.53 6.28Q49.75 6.29 49.99 6.32L49.99 6.32L49.99 6.32Q50.24 6.35 50.49 6.40L50.49 6.40L50.49 6.40Q50.75 6.45 50.99 6.53L50.99 6.53L50.72 7.59L50.55 7.69L50.55 7.69Q50.36 7.59 50.13 7.51L50.13 7.51L50.13 7.51Q49.90 7.44 49.67 7.39L49.67 7.39L49.67 7.39Q49.43 7.35 49.21 7.32L49.21 7.32L49.21 7.32Q48.98 7.30 48.81 7.30L48.81 7.30L48.81 7.30Q48.49 7.30 48.24 7.37L48.24 7.37L48.24 7.37Q47.98 7.44 47.80 7.56L47.80 7.56L47.80 7.56Q47.61 7.69 47.51 7.87L47.51 7.87L47.51 7.87Q47.41 8.05 47.41 8.29L47.41 8.29L47.41 8.29Q47.41 8.59 47.57 8.78L47.57 8.78L47.57 8.78Q47.74 8.98 48.01 9.12L48.01 9.12L48.01 9.12Q48.28 9.26 48.63 9.37L48.63 9.37L48.63 9.37Q48.97 9.47 49.33 9.58L49.33 9.58L49.33 9.58Q49.70 9.69 50.04 9.82L50.04 9.82L50.04 9.82Q50.39 9.96 50.66 10.17L50.66 10.17L50.66 10.17Q50.93 10.38 51.10 10.69L51.10 10.69L51.10 10.69Q51.26 10.99 51.26 11.43L51.26 11.43L51.26 11.43Q51.26 11.94 51.03 12.37L51.03 12.37L51.03 12.37Q50.80 12.80 50.40 13.12L50.40 13.12L50.40 13.12Q50.00 13.43 49.47 13.61L49.47 13.61L49.47 13.61Q48.93 13.78 48.32 13.78L48.32 13.78L48.32 13.78Q47.79 13.78 47.19 13.66L47.19 13.66L47.19 13.66Q46.59 13.54 46.03 13.32L46.03 13.32ZM57.48 13.64L56.29 13.64L57.05 3.63L59.06 3.63L61.53 10.62L61.91 11.93L62.05 11.93L62.43 10.62L64.91 3.63L66.92 3.63L67.68 13.64L66.36 13.64L65.83 5.78L65.78 4.35L65.65 4.35L65.25 5.71L62.54 13.44L61.33 13.44L58.60 5.73L58.19 4.35L58.06 4.35L58.02 5.77L57.48 13.64ZM73.93 12.56L73.93 12.56L73.93 12.56Q73.76 12.71 73.52 12.92L73.52 12.92L73.52 12.92Q73.27 13.13 72.97 13.32L72.97 13.32L72.97 13.32Q72.67 13.51 72.31 13.64L72.31 13.64L72.31 13.64Q71.95 13.78 71.54 13.78L71.54 13.78L71.54 13.78Q71.18 13.78 70.84 13.65L70.84 13.65L70.84 13.65Q70.49 13.53 70.23 13.28L70.23 13.28L70.23 13.28Q69.96 13.03 69.80 12.66L69.80 12.66L69.80 12.66Q69.64 12.29 69.64 11.81L69.64 11.81L69.64 11.81Q69.64 11.52 69.71 11.22L69.71 11.22L69.71 11.22Q69.78 10.92 69.95 10.64L69.95 10.64L69.95 10.64Q70.12 10.36 70.40 10.12L70.40 10.12L70.40 10.12Q70.68 9.88 71.08 9.70L71.08 9.70L71.08 9.70Q71.49 9.52 72.04 9.41L72.04 9.41L72.04 9.41Q72.60 9.31 73.32 9.31L73.32 9.31L73.93 9.31L73.93 8.68L73.93 8.68Q73.93 8.37 73.82 8.11L73.82 8.11L73.82 8.11Q73.71 7.86 73.52 7.68L73.52 7.68L73.52 7.68Q73.32 7.50 73.05 7.40L73.05 7.40L73.05 7.40Q72.78 7.30 72.45 7.30L72.45 7.30L72.45 7.30Q72.21 7.30 71.93 7.36L71.93 7.36L71.93 7.36Q71.65 7.41 71.38 7.51L71.38 7.51L71.38 7.51Q71.10 7.62 70.85 7.75L70.85 7.75L70.85 7.75Q70.59 7.89 70.40 8.05L70.40 8.05L70.28 7.98L70.01 6.99L70.01 6.99Q70.40 6.77 70.77 6.63L70.77 6.63L70.77 6.63Q71.14 6.49 71.48 6.41L71.48 6.41L71.48 6.41Q71.82 6.32 72.13 6.29L72.13 6.29L72.13 6.29Q72.43 6.26 72.71 6.26L72.71 6.26L72.71 6.26Q73.99 6.26 74.61 6.79L74.61 6.79L74.61 6.79Q75.23 7.32 75.23 8.38L75.23 8.38L75.23 11.95L75.23 11.95Q75.23 12.04 75.24 12.16L75.24 12.16L75.24 12.16Q75.26 12.29 75.31 12.41L75.31 12.41L75.31 12.41Q75.36 12.52 75.46 12.61L75.46 12.61L75.46 12.61Q75.56 12.69 75.73 12.69L75.73 12.69L75.73 12.69Q75.82 12.69 75.98 12.66L75.98 12.66L75.98 12.66Q76.14 12.63 76.30 12.55L76.30 12.55L76.30 13.28L76.30 13.28Q75.97 13.50 75.64 13.64L75.64 13.64L75.64 13.64Q75.30 13.78 75.00 13.78L75.00 13.78L75.00 13.78Q74.72 13.78 74.54 13.67L74.54 13.67L74.54 13.67Q74.35 13.56 74.23 13.38L74.23 13.38L74.23 13.38Q74.12 13.20 74.05 12.98L74.05 12.98L74.05 12.98Q73.98 12.77 73.93 12.56ZM73.93 11.69L73.93 10.10L73.41 10.10L73.41 10.10Q72.61 10.10 72.14 10.22L72.14 10.22L72.14 10.22Q71.66 10.33 71.41 10.52L71.41 10.52L71.41 10.52Q71.16 10.71 71.08 10.95L71.08 10.95L71.08 10.95Q71.00 11.20 71.00 11.46L71.00 11.46L71.00 11.46Q71.00 11.75 71.09 11.98L71.09 11.98L71.09 11.98Q71.17 12.20 71.32 12.36L71.32 12.36L71.32 12.36Q71.46 12.52 71.67 12.61L71.67 12.61L71.67 12.61Q71.87 12.69 72.11 12.69L72.11 12.69L72.11 12.69Q72.30 12.69 72.49 12.64L72.49 12.64L72.49 12.64Q72.69 12.60 72.91 12.49L72.91 12.49L72.91 12.49Q73.13 12.37 73.38 12.18L73.38 12.18L73.38 12.18Q73.63 11.99 73.93 11.69L73.93 11.69ZM77.88 13.64L77.88 6.40L78.89 6.40L79.09 7.66L79.09 7.66Q79.33 7.43 79.64 7.18L79.64 7.18L79.64 7.18Q79.95 6.94 80.31 6.73L80.31 6.73L80.31 6.73Q80.66 6.53 81.07 6.40L81.07 6.40L81.07 6.40Q81.47 6.26 81.89 6.26L81.89 6.26L81.89 6.26Q82.39 6.26 82.79 6.45L82.79 6.45L82.79 6.45Q83.19 6.64 83.48 6.99L83.48 6.99L83.48 6.99Q83.76 7.33 83.91 7.81L83.91 7.81L83.91 7.81Q84.07 8.29 84.07 8.85L84.07 8.85L84.07 13.64L82.77 13.64L82.77 8.97L82.77 8.97Q82.77 8.57 82.66 8.27L82.66 8.27L82.66 8.27Q82.54 7.96 82.35 7.76L82.35 7.76L82.35 7.76Q82.15 7.56 81.87 7.46L81.87 7.46L81.87 7.46Q81.60 7.36 81.28 7.36L81.28 7.36L81.28 7.36Q80.71 7.36 80.21 7.66L80.21 7.66L80.21 7.66Q79.70 7.96 79.17 8.45L79.17 8.45L79.17 13.64L77.88 13.64ZM90.38 12.56L90.38 12.56L90.38 12.56Q90.21 12.71 89.97 12.92L89.97 12.92L89.97 12.92Q89.73 13.13 89.42 13.32L89.42 13.32L89.42 13.32Q89.12 13.51 88.76 13.64L88.76 13.64L88.76 13.64Q88.40 13.78 88.00 13.78L88.00 13.78L88.00 13.78Q87.64 13.78 87.29 13.65L87.29 13.65L87.29 13.65Q86.95 13.53 86.68 13.28L86.68 13.28L86.68 13.28Q86.41 13.03 86.25 12.66L86.25 12.66L86.25 12.66Q86.09 12.29 86.09 11.81L86.09 11.81L86.09 11.81Q86.09 11.52 86.16 11.22L86.16 11.22L86.16 11.22Q86.24 10.92 86.41 10.64L86.41 10.64L86.41 10.64Q86.58 10.36 86.85 10.12L86.85 10.12L86.85 10.12Q87.13 9.88 87.54 9.70L87.54 9.70L87.54 9.70Q87.94 9.52 88.50 9.41L88.50 9.41L88.50 9.41Q89.05 9.31 89.77 9.31L89.77 9.31L90.38 9.31L90.38 8.68L90.38 8.68Q90.38 8.37 90.28 8.11L90.28 8.11L90.28 8.11Q90.17 7.86 89.97 7.68L89.97 7.68L89.97 7.68Q89.78 7.50 89.51 7.40L89.51 7.40L89.51 7.40Q89.24 7.30 88.91 7.30L88.91 7.30L88.91 7.30Q88.66 7.30 88.39 7.36L88.39 7.36L88.39 7.36Q88.11 7.41 87.83 7.51L87.83 7.51L87.83 7.51Q87.55 7.62 87.30 7.75L87.30 7.75L87.30 7.75Q87.05 7.89 86.86 8.05L86.86 8.05L86.73 7.98L86.46 6.99L86.46 6.99Q86.86 6.77 87.23 6.63L87.23 6.63L87.23 6.63Q87.60 6.49 87.93 6.41L87.93 6.41L87.93 6.41Q88.27 6.32 88.58 6.29L88.58 6.29L88.58 6.29Q88.89 6.26 89.17 6.26L89.17 6.26L89.17 6.26Q90.45 6.26 91.06 6.79L91.06 6.79L91.06 6.79Q91.68 7.32 91.68 8.38L91.68 8.38L91.68 11.95L91.68 11.95Q91.68 12.04 91.70 12.16L91.70 12.16L91.70 12.16Q91.71 12.29 91.76 12.41L91.76 12.41L91.76 12.41Q91.81 12.52 91.91 12.61L91.91 12.61L91.91 12.61Q92.01 12.69 92.18 12.69L92.18 12.69L92.18 12.69Q92.28 12.69 92.44 12.66L92.44 12.66L92.44 12.66Q92.59 12.63 92.75 12.55L92.75 12.55L92.75 13.28L92.75 13.28Q92.42 13.50 92.09 13.64L92.09 13.64L92.09 13.64Q91.76 13.78 91.45 13.78L91.45 13.78L91.45 13.78Q91.17 13.78 90.99 13.67L90.99 13.67L90.99 13.67Q90.81 13.56 90.69 13.38L90.69 13.38L90.69 13.38Q90.57 13.20 90.50 12.98L90.50 12.98L90.50 12.98Q90.43 12.77 90.38 12.56ZM90.38 11.69L90.38 10.10L89.87 10.10L89.87 10.10Q89.07 10.10 88.59 10.22L88.59 10.22L88.59 10.22Q88.12 10.33 87.87 10.52L87.87 10.52L87.87 10.52Q87.62 10.71 87.54 10.95L87.54 10.95L87.54 10.95Q87.46 11.20 87.46 11.46L87.46 11.46L87.46 11.46Q87.46 11.75 87.54 11.98L87.54 11.98L87.54 11.98Q87.62 12.20 87.77 12.36L87.77 12.36L87.77 12.36Q87.92 12.52 88.12 12.61L88.12 12.61L88.12 12.61Q88.33 12.69 88.57 12.69L88.57 12.69L88.57 12.69Q88.75 12.69 88.95 12.64L88.95 12.64L88.95 12.64Q89.14 12.60 89.36 12.49L89.36 12.49L89.36 12.49Q89.58 12.37 89.83 12.18L89.83 12.18L89.83 12.18Q90.08 11.99 90.38 11.69L90.38 11.69ZM97.92 14.05L96.23 14.05L96.23 14.05Q96.05 14.14 95.85 14.27L95.85 14.27L95.85 14.27Q95.65 14.40 95.48 14.56L95.48 14.56L95.48 14.56Q95.31 14.72 95.19 14.92L95.19 14.92L95.19 14.92Q95.07 15.11 95.07 15.33L95.07 15.33L95.07 15.33Q95.07 15.54 95.21 15.74L95.21 15.74L95.21 15.74Q95.34 15.93 95.60 16.08L95.60 16.08L95.60 16.08Q95.85 16.22 96.23 16.31L96.23 16.31L96.23 16.31Q96.61 16.39 97.09 16.39L97.09 16.39L97.09 16.39Q97.64 16.39 98.08 16.28L98.08 16.28L98.08 16.28Q98.52 16.17 98.82 15.98L98.82 15.98L98.82 15.98Q99.12 15.79 99.28 15.54L99.28 15.54L99.28 15.54Q99.44 15.29 99.44 15.01L99.44 15.01L99.44 15.01Q99.44 14.76 99.31 14.58L99.31 14.58L99.31 14.58Q99.19 14.40 98.98 14.28L98.98 14.28L98.98 14.28Q98.77 14.16 98.50 14.11L98.50 14.11L98.50 14.11Q98.22 14.05 97.92 14.05L97.92 14.05ZM95.29 13.92L95.29 13.92L95.29 13.92Q95.08 13.85 94.90 13.75L94.90 13.75L94.90 13.75Q94.71 13.64 94.58 13.52L94.58 13.52L94.58 13.52Q94.44 13.39 94.36 13.23L94.36 13.23L94.36 13.23Q94.28 13.07 94.28 12.89L94.28 12.89L94.28 12.89Q94.28 12.66 94.39 12.46L94.39 12.46L94.39 12.46Q94.51 12.26 94.69 12.07L94.69 12.07L94.69 12.07Q94.87 11.88 95.10 11.71L95.10 11.71L95.10 11.71Q95.33 11.55 95.57 11.39L95.57 11.39L95.57 11.39Q94.81 11.02 94.46 10.42L94.46 10.42L94.46 10.42Q94.10 9.82 94.10 9.11L94.10 9.11L94.10 9.11Q94.10 8.67 94.23 8.29L94.23 8.29L94.23 8.29Q94.36 7.91 94.58 7.59L94.58 7.59L94.58 7.59Q94.81 7.27 95.11 7.03L95.11 7.03L95.11 7.03Q95.41 6.78 95.76 6.61L95.76 6.61L95.76 6.61Q96.11 6.44 96.49 6.35L96.49 6.35L96.49 6.35Q96.87 6.26 97.24 6.26L97.24 6.26L97.24 6.26Q97.69 6.26 98.12 6.38L98.12 6.38L98.12 6.38Q98.54 6.49 98.83 6.68L98.83 6.68L98.83 6.68Q98.94 6.62 99.10 6.56L99.10 6.56L99.10 6.56Q99.26 6.51 99.44 6.47L99.44 6.47L99.44 6.47Q99.61 6.44 99.79 6.42L99.79 6.42L99.79 6.42Q99.98 6.40 100.13 6.40L100.13 6.40L101.36 6.40L101.09 7.42L99.48 7.42L99.48 7.42Q99.52 7.45 99.62 7.58L99.62 7.58L99.62 7.58Q99.71 7.70 99.80 7.91L99.80 7.91L99.80 7.91Q99.89 8.11 99.97 8.37L99.97 8.37L99.97 8.37Q100.04 8.64 100.04 8.94L100.04 8.94L100.04 8.94Q100.04 9.50 99.77 9.98L99.77 9.98L99.77 9.98Q99.51 10.47 99.08 10.83L99.08 10.83L99.08 10.83Q98.66 11.20 98.11 11.41L98.11 11.41L98.11 11.41Q97.56 11.62 96.98 11.62L96.98 11.62L96.98 11.62Q96.83 11.62 96.68 11.61L96.68 11.61L96.68 11.61Q96.53 11.59 96.36 11.57L96.36 11.57L96.36 11.57Q96.24 11.65 96.10 11.74L96.10 11.74L96.10 11.74Q95.96 11.84 95.84 11.95L95.84 11.95L95.84 11.95Q95.73 12.07 95.66 12.19L95.66 12.19L95.66 12.19Q95.58 12.32 95.58 12.46L95.58 12.46L95.58 12.46Q95.58 12.67 95.78 12.81L95.78 12.81L95.78 12.81Q95.98 12.95 96.33 12.95L96.33 12.95L98.27 12.95L98.27 12.95Q98.76 12.95 99.20 13.07L99.20 13.07L99.20 13.07Q99.63 13.20 99.96 13.44L99.96 13.44L99.96 13.44Q100.28 13.67 100.47 14L100.47 14L100.47 14Q100.67 14.33 100.67 14.72L100.67 14.72L100.67 14.72Q100.67 15.19 100.40 15.67L100.40 15.67L100.40 15.67Q100.13 16.15 99.63 16.55L99.63 16.55L99.63 16.55Q99.12 16.95 98.39 17.20L98.39 17.20L98.39 17.20Q97.65 17.45 96.71 17.45L96.71 17.45L96.71 17.45Q96.09 17.45 95.55 17.33L95.55 17.33L95.55 17.33Q95.01 17.21 94.62 17.00L94.62 17.00L94.62 17.00Q94.23 16.79 94.00 16.49L94.00 16.49L94.00 16.49Q93.78 16.19 93.78 15.82L93.78 15.82L93.78 15.82Q93.78 15.59 93.86 15.38L93.86 15.38L93.86 15.38Q93.95 15.17 94.08 14.98L94.08 14.98L94.08 14.98Q94.21 14.80 94.38 14.64L94.38 14.64L94.38 14.64Q94.55 14.47 94.72 14.34L94.72 14.34L94.72 14.34Q94.88 14.21 95.04 14.10L95.04 14.10L95.04 14.10Q95.19 13.99 95.29 13.92ZM95.33 8.90L95.33 8.90L95.33 8.90Q95.33 9.27 95.46 9.59L95.46 9.59L95.46 9.59Q95.59 9.91 95.82 10.15L95.82 10.15L95.82 10.15Q96.05 10.38 96.37 10.52L96.37 10.52L96.37 10.52Q96.69 10.65 97.08 10.65L97.08 10.65L97.08 10.65Q97.44 10.65 97.75 10.53L97.75 10.53L97.75 10.53Q98.07 10.40 98.30 10.19L98.30 10.19L98.30 10.19Q98.54 9.97 98.67 9.66L98.67 9.66L98.67 9.66Q98.81 9.34 98.81 8.96L98.81 8.96L98.81 8.96Q98.81 8.59 98.68 8.27L98.68 8.27L98.68 8.27Q98.55 7.96 98.31 7.73L98.31 7.73L98.31 7.73Q98.08 7.50 97.76 7.37L97.76 7.37L97.76 7.37Q97.44 7.23 97.06 7.23L97.06 7.23L97.06 7.23Q96.69 7.23 96.38 7.35L96.38 7.35L96.38 7.35Q96.07 7.47 95.84 7.69L95.84 7.69L95.84 7.69Q95.60 7.90 95.47 8.21L95.47 8.21L95.47 8.21Q95.33 8.52 95.33 8.90ZM108.27 12.29L108.27 13.03L108.27 13.03Q108.01 13.21 107.68 13.35L107.68 13.35L107.68 13.35Q107.34 13.49 106.98 13.59L106.98 13.59L106.98 13.59Q106.61 13.69 106.25 13.73L106.25 13.73L106.25 13.73Q105.88 13.78 105.57 13.78L105.57 13.78L105.57 13.78Q104.87 13.78 104.24 13.55L104.24 13.55L104.24 13.55Q103.61 13.32 103.14 12.87L103.14 12.87L103.14 12.87Q102.67 12.41 102.39 11.75L102.39 11.75L102.39 11.75Q102.11 11.08 102.11 10.21L102.11 10.21L102.11 10.21Q102.11 9.32 102.41 8.59L102.41 8.59L102.41 8.59Q102.70 7.85 103.20 7.34L103.20 7.34L103.20 7.34Q103.70 6.82 104.35 6.54L104.35 6.54L104.35 6.54Q105.01 6.26 105.72 6.26L105.72 6.26L105.72 6.26Q106.31 6.26 106.81 6.46L106.81 6.46L106.81 6.46Q107.31 6.65 107.68 7.04L107.68 7.04L107.68 7.04Q108.06 7.43 108.27 8.02L108.27 8.02L108.27 8.02Q108.48 8.60 108.48 9.38L108.48 9.38L108.48 9.38Q108.48 9.54 108.47 9.75L108.47 9.75L108.47 9.75Q108.45 9.97 108.41 10.21L108.41 10.21L103.46 10.21L103.46 10.21Q103.46 10.80 103.67 11.26L103.67 11.26L103.67 11.26Q103.88 11.72 104.26 12.04L104.26 12.04L104.26 12.04Q104.64 12.36 105.16 12.52L105.16 12.52L105.16 12.52Q105.69 12.69 106.33 12.69L106.33 12.69L106.33 12.69Q106.48 12.69 106.71 12.67L106.71 12.67L106.71 12.67Q106.93 12.66 107.19 12.62L107.19 12.62L107.19 12.62Q107.45 12.58 107.73 12.50L107.73 12.50L107.73 12.50Q108.01 12.42 108.27 12.29L108.27 12.29ZM103.46 9.41L107.25 9.41L107.25 9.41Q107.25 8.89 107.11 8.50L107.11 8.50L107.11 8.50Q106.96 8.11 106.72 7.84L106.72 7.84L106.72 7.84Q106.47 7.57 106.15 7.44L106.15 7.44L106.15 7.44Q105.82 7.30 105.45 7.30L105.45 7.30L105.45 7.30Q105.04 7.30 104.68 7.47L104.68 7.47L104.68 7.47Q104.32 7.64 104.05 7.92L104.05 7.92L104.05 7.92Q103.78 8.21 103.62 8.59L103.62 8.59L103.62 8.59Q103.46 8.98 103.46 9.41L103.46 9.41ZM110.50 13.64L110.50 6.40L111.51 6.40L111.72 7.66L111.72 7.66Q111.95 7.44 112.26 7.19L112.26 7.19L112.26 7.19Q112.56 6.95 112.91 6.74L112.91 6.74L112.91 6.74Q113.25 6.54 113.62 6.40L113.62 6.40L113.62 6.40Q114.00 6.26 114.37 6.26L114.37 6.26L114.37 6.26Q114.68 6.26 114.98 6.36L114.98 6.36L114.98 6.36Q115.28 6.47 115.54 6.65L115.54 6.65L115.54 6.65Q115.79 6.84 116.00 7.10L116.00 7.10L116.00 7.10Q116.20 7.36 116.31 7.68L116.31 7.68L116.31 7.68Q116.57 7.46 116.87 7.21L116.87 7.21L116.87 7.21Q117.17 6.96 117.51 6.75L117.51 6.75L117.51 6.75Q117.84 6.54 118.23 6.40L118.23 6.40L118.23 6.40Q118.61 6.26 119.03 6.26L119.03 6.26L119.03 6.26Q119.53 6.26 119.93 6.46L119.93 6.46L119.93 6.46Q120.33 6.65 120.61 7L120.61 7L120.61 7Q120.89 7.35 121.04 7.82L121.04 7.82L121.04 7.82Q121.19 8.30 121.19 8.86L121.19 8.86L121.19 13.64L119.90 13.64L119.90 8.97L119.90 8.97Q119.90 8.60 119.80 8.30L119.80 8.30L119.80 8.30Q119.70 8.00 119.51 7.79L119.51 7.79L119.51 7.79Q119.33 7.58 119.06 7.47L119.06 7.47L119.06 7.47Q118.80 7.36 118.47 7.36L118.47 7.36L118.47 7.36Q118.19 7.36 117.94 7.44L117.94 7.44L117.94 7.44Q117.69 7.52 117.45 7.67L117.45 7.67L117.45 7.67Q117.21 7.81 116.97 8.02L116.97 8.02L116.97 8.02Q116.72 8.22 116.47 8.46L116.47 8.46L116.47 8.46Q116.48 8.56 116.49 8.65L116.49 8.65L116.49 8.65Q116.49 8.74 116.49 8.86L116.49 8.86L116.49 13.64L115.19 13.64L115.19 8.97L115.19 8.97Q115.19 8.60 115.09 8.30L115.09 8.30L115.09 8.30Q114.99 8.00 114.80 7.79L114.80 7.79L114.80 7.79Q114.61 7.58 114.34 7.47L114.34 7.47L114.34 7.47Q114.08 7.36 113.76 7.36L113.76 7.36L113.76 7.36Q113.48 7.36 113.24 7.44L113.24 7.44L113.24 7.44Q112.99 7.52 112.76 7.67L112.76 7.67L112.76 7.67Q112.52 7.81 112.28 8.02L112.28 8.02L112.28 8.02Q112.05 8.22 111.80 8.45L111.80 8.45L111.80 13.64L110.50 13.64ZM129.37 12.29L129.37 13.03L129.37 13.03Q129.11 13.21 128.77 13.35L128.77 13.35L128.77 13.35Q128.43 13.49 128.07 13.59L128.07 13.59L128.07 13.59Q127.71 13.69 127.34 13.73L127.34 13.73L127.34 13.73Q126.98 13.78 126.66 13.78L126.66 13.78L126.66 13.78Q125.97 13.78 125.34 13.55L125.34 13.55L125.34 13.55Q124.71 13.32 124.24 12.87L124.24 12.87L124.24 12.87Q123.76 12.41 123.48 11.75L123.48 11.75L123.48 11.75Q123.20 11.08 123.20 10.21L123.20 10.21L123.20 10.21Q123.20 9.32 123.50 8.59L123.50 8.59L123.50 8.59Q123.80 7.85 124.30 7.34L124.30 7.34L124.30 7.34Q124.80 6.82 125.45 6.54L125.45 6.54L125.45 6.54Q126.10 6.26 126.82 6.26L126.82 6.26L126.82 6.26Q127.40 6.26 127.90 6.46L127.90 6.46L127.90 6.46Q128.41 6.65 128.78 7.04L128.78 7.04L128.78 7.04Q129.15 7.43 129.36 8.02L129.36 8.02L129.36 8.02Q129.58 8.60 129.58 9.38L129.58 9.38L129.58 9.38Q129.58 9.54 129.56 9.75L129.56 9.75L129.56 9.75Q129.55 9.97 129.51 10.21L129.51 10.21L124.56 10.21L124.56 10.21Q124.56 10.80 124.77 11.26L124.77 11.26L124.77 11.26Q124.97 11.72 125.35 12.04L125.35 12.04L125.35 12.04Q125.73 12.36 126.26 12.52L126.26 12.52L126.26 12.52Q126.79 12.69 127.42 12.69L127.42 12.69L127.42 12.69Q127.58 12.69 127.80 12.67L127.80 12.67L127.80 12.67Q128.03 12.66 128.29 12.62L128.29 12.62L128.29 12.62Q128.55 12.58 128.83 12.50L128.83 12.50L128.83 12.50Q129.11 12.42 129.37 12.29L129.37 12.29ZM124.56 9.41L128.34 9.41L128.34 9.41Q128.34 8.89 128.20 8.50L128.20 8.50L128.20 8.50Q128.06 8.11 127.81 7.84L127.81 7.84L127.81 7.84Q127.57 7.57 127.24 7.44L127.24 7.44L127.24 7.44Q126.92 7.30 126.55 7.30L126.55 7.30L126.55 7.30Q126.14 7.30 125.77 7.47L125.77 7.47L125.77 7.47Q125.41 7.64 125.14 7.92L125.14 7.92L125.14 7.92Q124.87 8.21 124.71 8.59L124.71 8.59L124.71 8.59Q124.56 8.98 124.56 9.41L124.56 9.41ZM131.60 13.64L131.60 6.40L132.61 6.40L132.82 7.66L132.82 7.66Q133.05 7.43 133.36 7.18L133.36 7.18L133.36 7.18Q133.67 6.94 134.03 6.73L134.03 6.73L134.03 6.73Q134.39 6.53 134.79 6.40L134.79 6.40L134.79 6.40Q135.19 6.26 135.62 6.26L135.62 6.26L135.62 6.26Q136.12 6.26 136.52 6.45L136.52 6.45L136.52 6.45Q136.92 6.64 137.20 6.99L137.20 6.99L137.20 6.99Q137.48 7.33 137.64 7.81L137.64 7.81L137.64 7.81Q137.79 8.29 137.79 8.85L137.79 8.85L137.79 13.64L136.49 13.64L136.49 8.97L136.49 8.97Q136.49 8.57 136.38 8.27L136.38 8.27L136.38 8.27Q136.27 7.96 136.07 7.76L136.07 7.76L136.07 7.76Q135.87 7.56 135.60 7.46L135.60 7.46L135.60 7.46Q135.32 7.36 135.00 7.36L135.00 7.36L135.00 7.36Q134.44 7.36 133.93 7.66L133.93 7.66L133.93 7.66Q133.42 7.96 132.90 8.45L132.90 8.45L132.90 13.64L131.60 13.64ZM140.77 11.83L140.77 7.44L139.30 7.44L139.41 6.77L139.41 6.77Q139.95 6.66 140.27 6.49L140.27 6.49L140.27 6.49Q140.59 6.32 140.80 6.07L140.80 6.07L140.80 6.07Q141.00 5.82 141.15 5.46L141.15 5.46L141.15 5.46Q141.29 5.10 141.46 4.60L141.46 4.60L142.06 4.60L142.06 6.40L144.69 6.40L144.42 7.44L142.06 7.44L142.06 11.48L142.06 11.48Q142.06 11.81 142.16 12.04L142.16 12.04L142.16 12.04Q142.26 12.27 142.44 12.41L142.44 12.41L142.44 12.41Q142.62 12.56 142.87 12.62L142.87 12.62L142.87 12.62Q143.12 12.69 143.43 12.69L143.43 12.69L143.43 12.69Q143.75 12.69 144.06 12.63L144.06 12.63L144.06 12.63Q144.37 12.57 144.65 12.47L144.65 12.47L144.65 13.21L144.65 13.21Q144.22 13.49 143.74 13.63L143.74 13.63L143.74 13.63Q143.27 13.78 142.78 13.78L142.78 13.78L142.78 13.78Q142.32 13.78 141.95 13.65L141.95 13.65L141.95 13.65Q141.58 13.52 141.32 13.28L141.32 13.28L141.32 13.28Q141.05 13.03 140.91 12.66L140.91 12.66L140.91 12.66Q140.77 12.30 140.77 11.83L140.77 11.83ZM152.68 12.72L152.68 12.72L152.68 12.72Q153.13 12.72 153.51 12.60L153.51 12.60L153.51 12.60Q153.90 12.48 154.17 12.26L154.17 12.26L154.17 12.26Q154.44 12.04 154.60 11.73L154.60 11.73L154.60 11.73Q154.75 11.42 154.75 11.05L154.75 11.05L154.75 11.05Q154.75 10.60 154.54 10.29L154.54 10.29L154.54 10.29Q154.33 9.99 154.00 9.75L154.00 9.75L154.00 9.75Q153.66 9.52 153.22 9.34L153.22 9.34L153.22 9.34Q152.78 9.16 152.33 8.97L152.33 8.97L152.33 8.97Q151.88 8.78 151.44 8.57L151.44 8.57L151.44 8.57Q151.01 8.35 150.67 8.03L150.67 8.03L150.67 8.03Q150.33 7.72 150.12 7.29L150.12 7.29L150.12 7.29Q149.91 6.86 149.91 6.25L149.91 6.25L149.91 6.25Q149.91 5.61 150.16 5.10L150.16 5.10L150.16 5.10Q150.40 4.59 150.85 4.23L150.85 4.23L150.85 4.23Q151.29 3.87 151.89 3.68L151.89 3.68L151.89 3.68Q152.50 3.49 153.22 3.49L153.22 3.49L153.22 3.49Q153.67 3.49 154.33 3.58L154.33 3.58L154.33 3.58Q155.00 3.66 155.76 3.89L155.76 3.89L155.53 5.08L155.39 5.15L155.39 5.15Q155.02 4.98 154.66 4.86L154.66 4.86L154.66 4.86Q154.31 4.74 153.99 4.68L153.99 4.68L153.99 4.68Q153.68 4.61 153.41 4.58L153.41 4.58L153.41 4.58Q153.15 4.55 152.95 4.55L152.95 4.55L152.95 4.55Q152.54 4.55 152.22 4.65L152.22 4.65L152.22 4.65Q151.89 4.75 151.67 4.94L151.67 4.94L151.67 4.94Q151.44 5.13 151.31 5.40L151.31 5.40L151.31 5.40Q151.18 5.67 151.18 6.01L151.18 6.01L151.18 6.01Q151.18 6.47 151.39 6.79L151.39 6.79L151.39 6.79Q151.60 7.11 151.95 7.36L151.95 7.36L151.95 7.36Q152.29 7.60 152.73 7.79L152.73 7.79L152.73 7.79Q153.17 7.98 153.62 8.18L153.62 8.18L153.62 8.18Q154.08 8.37 154.51 8.59L154.51 8.59L154.51 8.59Q154.95 8.80 155.30 9.10L155.30 9.10L155.30 9.10Q155.64 9.39 155.85 9.78L155.85 9.78L155.85 9.78Q156.06 10.18 156.06 10.73L156.06 10.73L156.06 10.73Q156.06 11.34 155.79 11.89L155.79 11.89L155.79 11.89Q155.53 12.44 155.06 12.86L155.06 12.86L155.06 12.86Q154.58 13.28 153.91 13.53L153.91 13.53L153.91 13.53Q153.25 13.78 152.44 13.78L152.44 13.78L152.44 13.78Q152.10 13.78 151.73 13.73L151.73 13.73L151.73 13.73Q151.35 13.69 150.98 13.60L150.98 13.60L150.98 13.60Q150.60 13.51 150.24 13.39L150.24 13.39L150.24 13.39Q149.87 13.27 149.54 13.12L149.54 13.12L149.78 11.92L149.91 11.85L149.91 11.85Q150.61 12.26 151.32 12.49L151.32 12.49L151.32 12.49Q152.04 12.72 152.68 12.72ZM161.21 13.78L161.21 13.78L161.21 13.78Q160.41 13.78 159.78 13.49L159.78 13.49L159.78 13.49Q159.15 13.21 158.71 12.72L158.71 12.72L158.71 12.72Q158.28 12.24 158.05 11.59L158.05 11.59L158.05 11.59Q157.82 10.94 157.82 10.23L157.82 10.23L157.82 10.23Q157.82 9.41 158.11 8.69L158.11 8.69L158.11 8.69Q158.40 7.96 158.92 7.42L158.92 7.42L158.92 7.42Q159.43 6.88 160.15 6.57L160.15 6.57L160.15 6.57Q160.86 6.26 161.69 6.26L161.69 6.26L161.69 6.26Q162.50 6.26 163.14 6.55L163.14 6.55L163.14 6.55Q163.78 6.84 164.21 7.33L164.21 7.33L164.21 7.33Q164.64 7.83 164.87 8.47L164.87 8.47L164.87 8.47Q165.09 9.12 165.09 9.83L165.09 9.83L165.09 9.83Q165.09 10.66 164.80 11.38L164.80 11.38L164.80 11.38Q164.51 12.10 163.99 12.63L163.99 12.63L163.99 12.63Q163.47 13.17 162.76 13.47L162.76 13.47L162.76 13.47Q162.05 13.78 161.21 13.78ZM161.50 12.74L161.50 12.74L161.50 12.74Q162.00 12.74 162.40 12.54L162.40 12.54L162.40 12.54Q162.81 12.34 163.10 11.99L163.10 11.99L163.10 11.99Q163.39 11.64 163.55 11.17L163.55 11.17L163.55 11.17Q163.71 10.69 163.71 10.14L163.71 10.14L163.71 10.14Q163.71 9.60 163.56 9.10L163.56 9.10L163.56 9.10Q163.40 8.59 163.10 8.19L163.10 8.19L163.10 8.19Q162.80 7.79 162.37 7.54L162.37 7.54L162.37 7.54Q161.94 7.30 161.40 7.30L161.40 7.30L161.40 7.30Q160.90 7.30 160.50 7.50L160.50 7.50L160.50 7.50Q160.09 7.70 159.80 8.06L159.80 8.06L159.80 8.06Q159.51 8.41 159.35 8.89L159.35 8.89L159.35 8.89Q159.19 9.37 159.19 9.91L159.19 9.91L159.19 9.91Q159.19 10.45 159.35 10.96L159.35 10.96L159.35 10.96Q159.50 11.47 159.80 11.87L159.80 11.87L159.80 11.87Q160.10 12.26 160.52 12.50L160.52 12.50L160.52 12.50Q160.95 12.74 161.50 12.74ZM167.69 13.64L167.69 7.44L166.22 7.44L166.33 6.70L167.69 6.40L167.69 6.04L167.69 6.04Q167.69 5.34 167.90 4.70L167.90 4.70L167.90 4.70Q168.12 4.07 168.52 3.59L168.52 3.59L168.52 3.59Q168.92 3.12 169.51 2.84L169.51 2.84L169.51 2.84Q170.10 2.56 170.85 2.56L170.85 2.56L170.85 2.56Q171.13 2.56 171.44 2.60L171.44 2.60L171.44 2.60Q171.75 2.64 172.03 2.73L172.03 2.73L171.77 3.79L171.64 3.86L171.64 3.86Q171.41 3.74 171.15 3.67L171.15 3.67L171.15 3.67Q170.88 3.60 170.58 3.60L170.58 3.60L170.58 3.60Q170.15 3.60 169.85 3.76L169.85 3.76L169.85 3.76Q169.54 3.93 169.35 4.22L169.35 4.22L169.35 4.22Q169.16 4.50 169.07 4.89L169.07 4.89L169.07 4.89Q168.98 5.28 168.98 5.73L168.98 5.73L168.98 6.40L171.46 6.40L171.19 7.44L168.98 7.44L168.98 13.64L167.69 13.64ZM173.76 11.83L173.76 7.44L172.29 7.44L172.40 6.77L172.40 6.77Q172.94 6.66 173.26 6.49L173.26 6.49L173.26 6.49Q173.58 6.32 173.79 6.07L173.79 6.07L173.79 6.07Q174.00 5.82 174.14 5.46L174.14 5.46L174.14 5.46Q174.28 5.10 174.45 4.60L174.45 4.60L175.05 4.60L175.05 6.40L177.68 6.40L177.41 7.44L175.05 7.44L175.05 11.48L175.05 11.48Q175.05 11.81 175.15 12.04L175.15 12.04L175.15 12.04Q175.25 12.27 175.43 12.41L175.43 12.41L175.43 12.41Q175.61 12.56 175.86 12.62L175.86 12.62L175.86 12.62Q176.11 12.69 176.42 12.69L176.42 12.69L176.42 12.69Q176.74 12.69 177.05 12.63L177.05 12.63L177.05 12.63Q177.36 12.57 177.64 12.47L177.64 12.47L177.64 13.21L177.64 13.21Q177.21 13.49 176.73 13.63L176.73 13.63L176.73 13.63Q176.26 13.78 175.77 13.78L175.77 13.78L175.77 13.78Q175.31 13.78 174.94 13.65L174.94 13.65L174.94 13.65Q174.57 13.52 174.31 13.28L174.31 13.28L174.31 13.28Q174.04 13.03 173.90 12.66L173.90 12.66L173.90 12.66Q173.76 12.30 173.76 11.83L173.76 11.83ZM178.91 6.40L180.35 6.40L181.67 11.47L181.88 12.62L182.01 12.62L182.25 11.48L183.70 6.62L185.18 6.62L186.61 11.47L186.86 12.62L187.00 12.62L187.22 11.48L188.56 6.40L189.87 6.40L187.57 13.64L186.14 13.64L184.76 9.16L184.45 7.90L184.31 7.90L184.00 9.16L182.59 13.64L181.17 13.64L178.91 6.40ZM195.39 12.56L195.39 12.56L195.39 12.56Q195.22 12.71 194.98 12.92L194.98 12.92L194.98 12.92Q194.74 13.13 194.43 13.32L194.43 13.32L194.43 13.32Q194.13 13.51 193.77 13.64L193.77 13.64L193.77 13.64Q193.41 13.78 193.01 13.78L193.01 13.78L193.01 13.78Q192.64 13.78 192.30 13.65L192.30 13.65L192.30 13.65Q191.95 13.53 191.69 13.28L191.69 13.28L191.69 13.28Q191.42 13.03 191.26 12.66L191.26 12.66L191.26 12.66Q191.10 12.29 191.10 11.81L191.10 11.81L191.10 11.81Q191.10 11.52 191.17 11.22L191.17 11.22L191.17 11.22Q191.24 10.92 191.41 10.64L191.41 10.64L191.41 10.64Q191.58 10.36 191.86 10.12L191.86 10.12L191.86 10.12Q192.14 9.88 192.54 9.70L192.54 9.70L192.54 9.70Q192.95 9.52 193.50 9.41L193.50 9.41L193.50 9.41Q194.06 9.31 194.78 9.31L194.78 9.31L195.39 9.31L195.39 8.68L195.39 8.68Q195.39 8.37 195.28 8.11L195.28 8.11L195.28 8.11Q195.17 7.86 194.98 7.68L194.98 7.68L194.98 7.68Q194.78 7.50 194.51 7.40L194.51 7.40L194.51 7.40Q194.24 7.30 193.92 7.30L193.92 7.30L193.92 7.30Q193.67 7.30 193.39 7.36L193.39 7.36L193.39 7.36Q193.12 7.41 192.84 7.51L192.84 7.51L192.84 7.51Q192.56 7.62 192.31 7.75L192.31 7.75L192.31 7.75Q192.06 7.89 191.86 8.05L191.86 8.05L191.74 7.98L191.47 6.99L191.47 6.99Q191.86 6.77 192.23 6.63L192.23 6.63L192.23 6.63Q192.60 6.49 192.94 6.41L192.94 6.41L192.94 6.41Q193.28 6.32 193.59 6.29L193.59 6.29L193.59 6.29Q193.89 6.26 194.17 6.26L194.17 6.26L194.17 6.26Q195.45 6.26 196.07 6.79L196.07 6.79L196.07 6.79Q196.69 7.32 196.69 8.38L196.69 8.38L196.69 11.95L196.69 11.95Q196.69 12.04 196.70 12.16L196.70 12.16L196.70 12.16Q196.72 12.29 196.77 12.41L196.77 12.41L196.77 12.41Q196.82 12.52 196.92 12.61L196.92 12.61L196.92 12.61Q197.02 12.69 197.19 12.69L197.19 12.69L197.19 12.69Q197.29 12.69 197.44 12.66L197.44 12.66L197.44 12.66Q197.60 12.63 197.76 12.55L197.76 12.55L197.76 13.28L197.76 13.28Q197.43 13.50 197.10 13.64L197.10 13.64L197.10 13.64Q196.77 13.78 196.46 13.78L196.46 13.78L196.46 13.78Q196.18 13.78 196.00 13.67L196.00 13.67L196.00 13.67Q195.82 13.56 195.70 13.38L195.70 13.38L195.70 13.38Q195.58 13.20 195.51 12.98L195.51 12.98L195.51 12.98Q195.44 12.77 195.39 12.56ZM195.39 11.69L195.39 10.10L194.87 10.10L194.87 10.10Q194.07 10.10 193.60 10.22L193.60 10.22L193.60 10.22Q193.12 10.33 192.87 10.52L192.87 10.52L192.87 10.52Q192.62 10.71 192.54 10.95L192.54 10.95L192.54 10.95Q192.47 11.20 192.47 11.46L192.47 11.46L192.47 11.46Q192.47 11.75 192.55 11.98L192.55 11.98L192.55 11.98Q192.63 12.20 192.78 12.36L192.78 12.36L192.78 12.36Q192.92 12.52 193.13 12.61L193.13 12.61L193.13 12.61Q193.33 12.69 193.57 12.69L193.57 12.69L193.57 12.69Q193.76 12.69 193.95 12.64L193.95 12.64L193.95 12.64Q194.15 12.60 194.37 12.49L194.37 12.49L194.37 12.49Q194.59 12.37 194.84 12.18L194.84 12.18L194.84 12.18Q195.09 11.99 195.39 11.69L195.39 11.69ZM199.34 13.64L199.34 6.40L200.35 6.40L200.55 8.57L200.55 8.57Q200.64 8.40 200.74 8.22L200.74 8.22L200.74 8.22Q200.84 8.04 200.94 7.87L200.94 7.87L200.94 7.87Q201.04 7.70 201.13 7.55L201.13 7.55L201.13 7.55Q201.23 7.40 201.30 7.29L201.30 7.29L201.30 7.29Q201.46 7.08 201.64 6.89L201.64 6.89L201.64 6.89Q201.83 6.70 202.05 6.56L202.05 6.56L202.05 6.56Q202.27 6.42 202.51 6.34L202.51 6.34L202.51 6.34Q202.76 6.26 203.04 6.26L203.04 6.26L203.04 6.26Q203.24 6.26 203.42 6.31L203.42 6.31L203.42 6.31Q203.59 6.35 203.71 6.45L203.71 6.45L203.57 7.67L203.57 7.67Q203.45 7.64 203.33 7.63L203.33 7.63L203.33 7.63Q203.21 7.62 203.10 7.62L203.10 7.62L203.10 7.62Q202.61 7.62 202.25 7.77L202.25 7.77L202.25 7.77Q201.89 7.93 201.61 8.20L201.61 8.20L201.61 8.20Q201.33 8.47 201.10 8.83L201.10 8.83L201.10 8.83Q200.87 9.19 200.63 9.61L200.63 9.61L200.63 13.64L199.34 13.64ZM210.76 12.29L210.76 13.03L210.76 13.03Q210.50 13.21 210.16 13.35L210.16 13.35L210.16 13.35Q209.82 13.49 209.46 13.59L209.46 13.59L209.46 13.59Q209.10 13.69 208.73 13.73L208.73 13.73L208.73 13.73Q208.37 13.78 208.05 13.78L208.05 13.78L208.05 13.78Q207.35 13.78 206.73 13.55L206.73 13.55L206.73 13.55Q206.10 13.32 205.63 12.87L205.63 12.87L205.63 12.87Q205.15 12.41 204.87 11.75L204.87 11.75L204.87 11.75Q204.59 11.08 204.59 10.21L204.59 10.21L204.59 10.21Q204.59 9.32 204.89 8.59L204.89 8.59L204.89 8.59Q205.19 7.85 205.69 7.34L205.69 7.34L205.69 7.34Q206.19 6.82 206.84 6.54L206.84 6.54L206.84 6.54Q207.49 6.26 208.21 6.26L208.21 6.26L208.21 6.26Q208.79 6.26 209.29 6.46L209.29 6.46L209.29 6.46Q209.79 6.65 210.17 7.04L210.17 7.04L210.17 7.04Q210.54 7.43 210.75 8.02L210.75 8.02L210.75 8.02Q210.96 8.60 210.96 9.38L210.96 9.38L210.96 9.38Q210.96 9.54 210.95 9.75L210.95 9.75L210.95 9.75Q210.94 9.97 210.90 10.21L210.90 10.21L205.95 10.21L205.95 10.21Q205.95 10.80 206.15 11.26L206.15 11.26L206.15 11.26Q206.36 11.72 206.74 12.04L206.74 12.04L206.74 12.04Q207.12 12.36 207.65 12.52L207.65 12.52L207.65 12.52Q208.17 12.69 208.81 12.69L208.81 12.69L208.81 12.69Q208.97 12.69 209.19 12.67L209.19 12.67L209.19 12.67Q209.42 12.66 209.68 12.62L209.68 12.62L209.68 12.62Q209.94 12.58 210.22 12.50L210.22 12.50L210.22 12.50Q210.50 12.42 210.76 12.29L210.76 12.29ZM205.95 9.41L209.73 9.41L209.73 9.41Q209.73 8.89 209.59 8.50L209.59 8.50L209.59 8.50Q209.45 8.11 209.20 7.84L209.20 7.84L209.20 7.84Q208.95 7.57 208.63 7.44L208.63 7.44L208.63 7.44Q208.30 7.30 207.94 7.30L207.94 7.30L207.94 7.30Q207.53 7.30 207.16 7.47L207.16 7.47L207.16 7.47Q206.80 7.64 206.53 7.92L206.53 7.92L206.53 7.92Q206.26 8.21 206.10 8.59L206.10 8.59L206.10 8.59Q205.95 8.98 205.95 9.41L205.95 9.41Z"></path></g><!----><g data-v-423bf9ae="" id="0bafb0e6-f93a-4e3a-affd-be43bd8be36c" transform="matrix(2.288794936218153,0,0,2.288794936218153,-4.241437958980896,-27.90244039351586)" stroke="none" fill="white"><path d="M24.617 30.645h4.794V44.74h-4.794zM38.062 30.645h4.795V44.74h-4.795zM51.506 30.645h4.795V44.74h-4.795zM32.034 37.692h3.233v7.047h-3.233zM45.649 37.692h3.232v7.047h-3.232zM23.398 46.46H57.52v2.212H23.398zM19.739 49.448h41.438v2.213H19.739zM40.457 16.679L18.917 28.89 62 28.891 40.457 16.679zm0 1.778l15.676 8.886H24.784l15.673-8.886z"></path><circle cx="40.459" cy="23.486" r="2.638"></circle><path d="M23.398 34.481a19.812 19.812 0 0 0-2.966.736v-4.892h-1.384v4.892c-1.262-.428-3.663-1.064-6.804-1.064a23.69 23.69 0 0 0-7.128 1.109v-19.72c.854-.497 3.458-1.819 6.948-1.819 2.389 0 4.736.618 6.984 1.839v11.673l1.384-.771V15.563c2.248-1.221 4.595-1.839 6.984-1.839 3.489 0 6.094 1.322 6.947 1.819v3.162l2.518-1.402-1.133-.951v-1.56l-.301-.206c-.134-.093-3.334-2.247-8.031-2.247-2.635 0-5.214.689-7.677 2.033-2.462-1.344-5.041-2.033-7.676-2.033-4.698 0-7.897 2.154-8.032 2.247l-.301.206v1.56L2 17.807V39.909h21.398v-5.428z"></path></g><!----><g data-v-423bf9ae="" id="d45b78b9-6cd0-4661-aff1-1a27db3036eb" fill="white" transform="matrix(1.5149659842127023,0,0,1.5149659842127023,155.11583693690181,54.485523141484855)"><path d="M7.39 13.02L4.00 8.04L2.16 9.91L2.16 13.02L1.46 13.02L1.46 3.78L2.16 3.78L2.16 8.96L7.22 3.78L8.15 3.78L4.49 7.52L8.25 13.02L7.39 13.02ZM23.28 13.02L22.12 10.12L17.70 10.12L16.55 13.02L15.81 13.02L19.50 3.78L20.33 3.78L24.02 13.02L23.28 13.02ZM17.96 9.48L21.87 9.48L20.26 5.45L19.92 4.47L19.91 4.47L19.57 5.42L17.96 9.48ZM32.75 13.02L32.75 3.78L36.01 3.78L36.01 3.78Q37.52 3.78 38.27 4.41L38.27 4.41L38.27 4.41Q39.02 5.04 39.02 6.23L39.02 6.23L39.02 6.23Q39.02 7.04 38.58 7.60L38.58 7.60L38.58 7.60Q38.14 8.16 37.32 8.33L37.32 8.33L37.32 8.34L37.32 8.34Q38.22 8.48 38.74 9.07L38.74 9.07L38.74 9.07Q39.27 9.66 39.27 10.53L39.27 10.53L39.27 10.53Q39.27 11.72 38.42 12.37L38.42 12.37L38.42 12.37Q37.58 13.02 36.01 13.02L36.01 13.02L32.75 13.02ZM33.45 8.04L36.02 8.04L36.02 8.04Q38.28 8.04 38.28 6.23L38.28 6.23L38.28 6.23Q38.28 4.42 36.02 4.42L36.02 4.42L33.45 4.42L33.45 8.04ZM33.45 12.38L36.15 12.38L36.15 12.38Q37.32 12.38 37.93 11.90L37.93 11.90L37.93 11.90Q38.53 11.42 38.53 10.53L38.53 10.53L38.53 10.53Q38.53 9.62 37.93 9.15L37.93 9.15L37.93 9.15Q37.32 8.68 36.15 8.68L36.15 8.68L33.45 8.68L33.45 12.38ZM54.75 13.02L53.59 10.12L49.17 10.12L48.02 13.02L47.28 13.02L50.97 3.78L51.80 3.78L55.50 13.02L54.75 13.02ZM49.43 9.48L53.34 9.48L51.73 5.45L51.39 4.47L51.38 4.47L51.04 5.42L49.43 9.48ZM71.16 13.02L70.34 13.02L67.69 9.02L67.65 9.02L64.92 9.02L64.92 13.02L64.22 13.02L64.22 3.78L67.65 3.78L67.65 3.78Q69.03 3.78 69.85 4.48L69.85 4.48L69.85 4.48Q70.67 5.18 70.67 6.40L70.67 6.40L70.67 6.40Q70.67 7.41 70.08 8.07L70.08 8.07L70.08 8.07Q69.50 8.74 68.47 8.93L68.47 8.93L71.16 13.02ZM64.92 4.42L64.92 8.36L67.63 8.36L67.63 8.36Q68.75 8.36 69.35 7.85L69.35 7.85L69.35 7.85Q69.94 7.35 69.94 6.40L69.94 6.40L69.94 6.40Q69.94 5.45 69.35 4.93L69.35 4.93L69.35 4.93Q68.75 4.42 67.63 4.42L67.63 4.42L64.92 4.42ZM86.46 13.02L85.30 10.12L80.88 10.12L79.73 13.02L78.99 13.02L82.68 3.78L83.51 3.78L87.21 13.02L86.46 13.02ZM81.14 9.48L85.05 9.48L83.44 5.45L83.10 4.47L83.09 4.47L82.75 5.42L81.14 9.48ZM101.86 13.02L98.48 8.04L96.63 9.91L96.63 13.02L95.93 13.02L95.93 3.78L96.63 3.78L96.63 8.96L101.70 3.78L102.62 3.78L98.97 7.52L102.72 13.02L101.86 13.02ZM129.68 3.78L129.68 9.65L129.68 9.65Q129.68 11.35 128.76 12.26L128.76 12.26L128.76 12.26Q127.83 13.16 126.13 13.16L126.13 13.16L126.13 13.16Q124.42 13.16 123.49 12.26L123.49 12.26L123.49 12.26Q122.56 11.35 122.56 9.65L122.56 9.65L122.56 3.78L123.26 3.78L123.26 9.51L123.26 9.51Q123.26 10.99 123.98 11.75L123.98 11.75L123.98 11.75Q124.71 12.52 126.13 12.52L126.13 12.52L126.13 12.52Q127.53 12.52 128.25 11.75L128.25 11.75L128.25 11.75Q128.98 10.99 128.98 9.51L128.98 9.51L128.98 3.78L129.68 3.78ZM146.58 3.78L146.58 13.02L145.71 13.02L140.81 5.77L140.13 4.54L140.11 4.54L140.15 5.70L140.15 13.02L139.48 13.02L139.48 3.78L140.36 3.78L145.25 11.02L145.95 12.26L145.92 11.10L145.92 3.78L146.58 3.78ZM157.19 3.78L157.19 13.02L156.49 13.02L156.49 3.78L157.19 3.78ZM173.92 3.78L170.37 13.02L169.54 13.02L165.97 3.78L166.73 3.78L169.46 10.93L169.95 12.36L170.44 10.93L173.18 3.78L173.92 3.78ZM183.40 12.38L189.24 12.38L189.24 13.02L182.70 13.02L182.70 3.78L189.01 3.78L189.01 4.42L183.40 4.42L183.40 7.99L187.84 7.99L187.84 8.65L183.40 8.65L183.40 12.38ZM205.21 13.02L204.39 13.02L201.74 9.02L201.70 9.02L198.97 9.02L198.97 13.02L198.27 13.02L198.27 3.78L201.70 3.78L201.70 3.78Q203.08 3.78 203.90 4.48L203.90 4.48L203.90 4.48Q204.72 5.18 204.72 6.40L204.72 6.40L204.72 6.40Q204.72 7.41 204.13 8.07L204.13 8.07L204.13 8.07Q203.55 8.74 202.52 8.93L202.52 8.93L205.21 13.02ZM198.97 4.42L198.97 8.36L201.68 8.36L201.68 8.36Q202.80 8.36 203.40 7.85L203.40 7.85L203.40 7.85Q203.99 7.35 203.99 6.40L203.99 6.40L203.99 6.40Q203.99 5.45 203.40 4.93L203.40 4.93L203.40 4.93Q202.80 4.42 201.68 4.42L201.68 4.42L198.97 4.42ZM217.08 3.64L217.08 3.64Q219.69 3.64 220.57 5.68L220.57 5.68L219.97 6.17L219.97 6.17Q219.62 5.18 218.93 4.73L218.93 4.73L218.93 4.73Q218.23 4.28 217.10 4.28L217.10 4.28L217.10 4.28Q216.29 4.28 215.68 4.54L215.68 4.54L215.68 4.54Q215.08 4.79 214.77 5.22L214.77 5.22L214.77 5.22Q214.45 5.66 214.45 6.20L214.45 6.20L214.45 6.20Q214.45 6.73 214.72 7.08L214.72 7.08L214.72 7.08Q214.98 7.43 215.62 7.68L215.62 7.68L215.62 7.68Q216.26 7.92 217.38 8.12L217.38 8.12L217.38 8.12Q219.18 8.43 219.94 9.02L219.94 9.02L219.94 9.02Q220.70 9.60 220.70 10.64L220.70 10.64L220.70 10.64Q220.70 11.38 220.26 11.96L220.26 11.96L220.26 11.96Q219.83 12.53 219.04 12.84L219.04 12.84L219.04 12.84Q218.25 13.16 217.22 13.16L217.22 13.16L217.22 13.16Q215.77 13.16 214.77 12.58L214.77 12.58L214.77 12.58Q213.77 12.00 213.40 10.95L213.40 10.95L214.02 10.47L214.02 10.47Q214.30 11.47 215.15 11.99L215.15 11.99L215.15 11.99Q215.99 12.52 217.24 12.52L217.24 12.52L217.24 12.52Q218.44 12.52 219.21 12.03L219.21 12.03L219.21 12.03Q219.97 11.54 219.97 10.68L219.97 10.68L219.97 10.68Q219.97 9.94 219.35 9.51L219.35 9.51L219.35 9.51Q218.72 9.07 217.18 8.81L217.18 8.81L217.18 8.81Q215.88 8.58 215.12 8.26L215.12 8.26L215.12 8.26Q214.37 7.94 214.04 7.46L214.04 7.46L214.04 7.46Q213.71 6.99 213.71 6.27L213.71 6.27L213.71 6.27Q213.71 5.56 214.12 4.96L214.12 4.96L214.12 4.96Q214.54 4.35 215.30 4.00L215.30 4.00L215.30 4.00Q216.06 3.64 217.08 3.64L217.08 3.64ZM230.59 3.78L230.59 13.02L229.89 13.02L229.89 3.78L230.59 3.78ZM246.81 3.78L246.81 4.42L243.43 4.42L243.43 13.02L242.73 13.02L242.73 4.42L239.36 4.42L239.36 3.78L246.81 3.78ZM261.55 3.78L258.27 9.42L258.27 13.02L257.57 13.02L257.57 9.42L254.30 3.78L255.12 3.78L257.92 8.69L260.72 3.78L261.55 3.78ZM285.01 8.95L285.01 9.66L280.71 9.66L280.71 8.95L285.01 8.95ZM308.81 3.64L308.81 3.64Q311.42 3.64 312.30 5.68L312.30 5.68L311.70 6.17L311.70 6.17Q311.35 5.18 310.65 4.73L310.65 4.73L310.65 4.73Q309.96 4.28 308.83 4.28L308.83 4.28L308.83 4.28Q308.01 4.28 307.41 4.54L307.41 4.54L307.41 4.54Q306.81 4.79 306.50 5.22L306.50 5.22L306.50 5.22Q306.18 5.66 306.18 6.20L306.18 6.20L306.18 6.20Q306.18 6.73 306.45 7.08L306.45 7.08L306.45 7.08Q306.71 7.43 307.35 7.68L307.35 7.68L307.35 7.68Q307.99 7.92 309.11 8.12L309.11 8.12L309.11 8.12Q310.91 8.43 311.67 9.02L311.67 9.02L311.67 9.02Q312.42 9.60 312.42 10.64L312.42 10.64L312.42 10.64Q312.42 11.38 311.99 11.96L311.99 11.96L311.99 11.96Q311.56 12.53 310.77 12.84L310.77 12.84L310.77 12.84Q309.97 13.16 308.95 13.16L308.95 13.16L308.95 13.16Q307.50 13.16 306.50 12.58L306.50 12.58L306.50 12.58Q305.49 12.00 305.13 10.95L305.13 10.95L305.75 10.47L305.75 10.47Q306.03 11.47 306.87 11.99L306.87 11.99L306.87 11.99Q307.72 12.52 308.97 12.52L308.97 12.52L308.97 12.52Q310.17 12.52 310.93 12.03L310.93 12.03L310.93 12.03Q311.70 11.54 311.70 10.68L311.70 10.68L311.70 10.68Q311.70 9.94 311.07 9.51L311.07 9.51L311.07 9.51Q310.45 9.07 308.91 8.81L308.91 8.81L308.91 8.81Q307.61 8.58 306.85 8.26L306.85 8.26L306.85 8.26Q306.10 7.94 305.77 7.46L305.77 7.46L305.77 7.46Q305.44 6.99 305.44 6.27L305.44 6.27L305.44 6.27Q305.44 5.56 305.85 4.96L305.85 4.96L305.85 4.96Q306.26 4.35 307.03 4.00L307.03 4.00L307.03 4.00Q307.79 3.64 308.81 3.64L308.81 3.64ZM327.50 3.78L327.50 4.42L324.13 4.42L324.13 13.02L323.43 13.02L323.43 4.42L320.05 4.42L320.05 3.78L327.50 3.78ZM343.28 3.78L343.28 9.65L343.28 9.65Q343.28 11.35 342.36 12.26L342.36 12.26L342.36 12.26Q341.43 13.16 339.72 13.16L339.72 13.16L339.72 13.16Q338.02 13.16 337.09 12.26L337.09 12.26L337.09 12.26Q336.15 11.35 336.15 9.65L336.15 9.65L336.15 3.78L336.85 3.78L336.85 9.51L336.85 9.51Q336.85 10.99 337.58 11.75L337.58 11.75L337.58 11.75Q338.31 12.52 339.72 12.52L339.72 12.52L339.72 12.52Q341.12 12.52 341.85 11.75L341.85 11.75L341.85 11.75Q342.58 10.99 342.58 9.51L342.58 9.51L342.58 3.78L343.28 3.78ZM355.99 3.78L355.99 3.78Q358.20 3.78 359.40 4.95L359.40 4.95L359.40 4.95Q360.60 6.12 360.60 8.33L360.60 8.33L360.60 8.33Q360.60 10.60 359.40 11.81L359.40 11.81L359.40 11.81Q358.20 13.02 355.99 13.02L355.99 13.02L353.08 13.02L353.08 3.78L355.99 3.78ZM356.05 12.38L356.05 12.38Q357.90 12.38 358.88 11.33L358.88 11.33L358.88 11.33Q359.87 10.29 359.87 8.33L359.87 8.33L359.87 8.33Q359.87 6.45 358.88 5.44L358.88 5.44L358.88 5.44Q357.90 4.42 356.05 4.42L356.05 4.42L353.78 4.42L353.78 12.38L356.05 12.38ZM375.58 3.78L372.30 9.42L372.30 13.02L371.60 13.02L371.60 9.42L368.33 3.78L369.15 3.78L371.95 8.69L374.75 3.78L375.58 3.78ZM402.39 10.68L402.39 10.68Q402.00 11.86 401.02 12.51L401.02 12.51L401.02 12.51Q400.05 13.16 398.69 13.16L398.69 13.16L398.69 13.16Q397.43 13.16 396.48 12.58L396.48 12.58L396.48 12.58Q395.53 12.00 395.01 10.92L395.01 10.92L395.01 10.92Q394.49 9.84 394.49 8.40L394.49 8.40L394.49 8.40Q394.49 6.96 395.01 5.88L395.01 5.88L395.01 5.88Q395.53 4.80 396.48 4.22L396.48 4.22L396.48 4.22Q397.43 3.64 398.68 3.64L398.68 3.64L398.68 3.64Q401.45 3.64 402.26 5.92L402.26 5.92L401.58 6.24L401.58 6.24Q401.25 5.26 400.55 4.77L400.55 4.77L400.55 4.77Q399.84 4.28 398.72 4.28L398.72 4.28L398.72 4.28Q397.68 4.28 396.89 4.78L396.89 4.78L396.89 4.78Q396.10 5.28 395.67 6.21L395.67 6.21L395.67 6.21Q395.23 7.14 395.23 8.40L395.23 8.40L395.23 8.40Q395.23 9.66 395.66 10.59L395.66 10.59L395.66 10.59Q396.09 11.52 396.87 12.02L396.87 12.02L396.87 12.02Q397.64 12.52 398.69 12.52L398.69 12.52L398.69 12.52Q399.81 12.52 400.60 11.97L400.60 11.97L400.60 11.97Q401.38 11.42 401.69 10.42L401.69 10.42L402.39 10.68ZM417.73 13.02L416.57 10.12L412.15 10.12L411.00 13.02L410.26 13.02L413.95 3.78L414.78 3.78L418.47 13.02L417.73 13.02ZM412.41 9.48L416.32 9.48L414.71 5.45L414.37 4.47L414.36 4.47L414.02 5.42L412.41 9.48ZM429.94 3.64L429.94 3.64Q432.54 3.64 433.43 5.68L433.43 5.68L432.82 6.17L432.82 6.17Q432.47 5.18 431.78 4.73L431.78 4.73L431.78 4.73Q431.09 4.28 429.95 4.28L429.95 4.28L429.95 4.28Q429.14 4.28 428.54 4.54L428.54 4.54L428.54 4.54Q427.94 4.79 427.62 5.22L427.62 5.22L427.62 5.22Q427.31 5.66 427.31 6.20L427.31 6.20L427.31 6.20Q427.31 6.73 427.57 7.08L427.57 7.08L427.57 7.08Q427.84 7.43 428.48 7.68L428.48 7.68L428.48 7.68Q429.11 7.92 430.23 8.12L430.23 8.12L430.23 8.12Q432.04 8.43 432.80 9.02L432.80 9.02L432.80 9.02Q433.55 9.60 433.55 10.64L433.55 10.64L433.55 10.64Q433.55 11.38 433.12 11.96L433.12 11.96L433.12 11.96Q432.68 12.53 431.89 12.84L431.89 12.84L431.89 12.84Q431.10 13.16 430.08 13.16L430.08 13.16L430.08 13.16Q428.62 13.16 427.62 12.58L427.62 12.58L427.62 12.58Q426.62 12.00 426.26 10.95L426.26 10.95L426.87 10.47L426.87 10.47Q427.15 11.47 428.00 11.99L428.00 11.99L428.00 11.99Q428.85 12.52 430.09 12.52L430.09 12.52L430.09 12.52Q431.30 12.52 432.06 12.03L432.06 12.03L432.06 12.03Q432.82 11.54 432.82 10.68L432.82 10.68L432.82 10.68Q432.82 9.94 432.20 9.51L432.20 9.51L432.20 9.51Q431.58 9.07 430.04 8.81L430.04 8.81L430.04 8.81Q428.74 8.58 427.98 8.26L427.98 8.26L427.98 8.26Q427.22 7.94 426.90 7.46L426.90 7.46L426.90 7.46Q426.57 6.99 426.57 6.27L426.57 6.27L426.57 6.27Q426.57 5.56 426.98 4.96L426.98 4.96L426.98 4.96Q427.39 4.35 428.16 4.00L428.16 4.00L428.16 4.00Q428.92 3.64 429.94 3.64L429.94 3.64ZM443.45 12.38L449.29 12.38L449.29 13.02L442.75 13.02L442.75 3.78L449.06 3.78L449.06 4.42L443.45 4.42L443.45 7.99L447.89 7.99L447.89 8.65L443.45 8.65L443.45 12.38Z"></path></g></svg>