<svg data-v-423bf9ae="" xmlns="http://www.w3.org/2000/svg" viewBox="0 0 91.55179744872613 60" class="icon"><!----><!----><!----><!----><g data-v-423bf9ae="" id="8a50c6e9-a469-4d37-a525-cd74a4d879cf" transform="matrix(1.5258632908121021,0,0,1.5258632908121021,-3.051726372576624,-18.8276267611639)" stroke="none" fill="white"><path d="M24.617 30.645h4.794V44.74h-4.794zM38.062 30.645h4.795V44.74h-4.795zM51.506 30.645h4.795V44.74h-4.795zM32.034 37.692h3.233v7.047h-3.233zM45.649 37.692h3.232v7.047h-3.232zM23.398 46.46H57.52v2.212H23.398zM19.739 49.448h41.438v2.213H19.739zM40.457 16.679L18.917 28.89 62 28.891 40.457 16.679zm0 1.778l15.676 8.886H24.784l15.673-8.886z"></path><circle cx="40.459" cy="23.486" r="2.638"></circle><path d="M23.398 34.481a19.812 19.812 0 0 0-2.966.736v-4.892h-1.384v4.892c-1.262-.428-3.663-1.064-6.804-1.064a23.69 23.69 0 0 0-7.128 1.109v-19.72c.854-.497 3.458-1.819 6.948-1.819 2.389 0 4.736.618 6.984 1.839v11.673l1.384-.771V15.563c2.248-1.221 4.595-1.839 6.984-1.839 3.489 0 6.094 1.322 6.947 1.819v3.162l2.518-1.402-1.133-.951v-1.56l-.301-.206c-.134-.093-3.334-2.247-8.031-2.247-2.635 0-5.214.689-7.677 2.033-2.462-1.344-5.041-2.033-7.676-2.033-4.698 0-7.897 2.154-8.032 2.247l-.301.206v1.56L2 17.807V39.909h21.398v-5.428z"></path></g><!----></svg>